<svg xmlns="https://www.w3.org/2000/svg" xmlns:xlink="https://www.w3.org/1999/xlink" viewBox="0 0 949.85 239.6"><defs><style>.cls-1{fill:#6f7170;}.cls-2{fill:#b1945f;}.cls-3{fill:url(#Degradado_sin_nombre_2);}.cls-4{fill:#3c5c4f;}</style><radialGradient id="Degradado_sin_nombre_2" cx="-316.59" cy="-1867.7" r="366.48" gradientTransform="translate(345.37 981.19) scale(0.5)" gradientUnits="userSpaceOnUse"><stop offset="0" stop-color="#d7c8a3"/><stop offset="0.05" stop-color="#d4c49e"/><stop offset="0.45" stop-color="#c1aa7c"/><stop offset="0.78" stop-color="#b59a67"/><stop offset="1" stop-color="#b1945f"/></radialGradient></defs><g id="Layer_2" data-name="Layer 2"><g id="Capa_1" data-name="Capa 1"><path class="cls-1" d="M307,176.3a13.62,13.62,0,0,1,2.64,8.51,12.55,12.55,0,0,1-5.56,11q-5.55,3.85-16.19,3.85H259.77V145.26h26.57q9.95,0,15.27,3.81a12,12,0,0,1,5.32,10.33,13.08,13.08,0,0,1-7.22,12A14.36,14.36,0,0,1,307,176.3Zm-34.73-21.56v12.82h12.51c3.11,0,5.46-.54,7.07-1.63a5.46,5.46,0,0,0,2.41-4.82,5.35,5.35,0,0,0-2.41-4.77c-1.61-1.07-4-1.6-7.07-1.6Zm22.18,33.8a5.6,5.6,0,0,0,2.53-5q0-6.77-10-6.76H272.28v13.44H287Q291.94,190.17,294.46,188.54Z"/><path class="cls-1" d="M364.72,189.55v10.1H322.61V145.26h41.1v10.1H335.12v11.81h25.25V177H335.12v12.59Z"/><path class="cls-1" d="M428.22,145.26v54.39H417.89l-27.11-33v33H378.35V145.26h10.41l27,33v-33Z"/><path class="cls-1" d="M444.2,145.26h12.59v54.39H444.2Z"/><path class="cls-1" d="M483.85,155.52H466.44V145.26h47.39v10.26h-17.4v44.13H483.85Z"/><path class="cls-1" d="M534,196.93a27.14,27.14,0,0,1-10.64-10.06,29,29,0,0,1,0-28.83A27.14,27.14,0,0,1,534,148a33.68,33.68,0,0,1,30.5,0,27.74,27.74,0,0,1,0,49,33.68,33.68,0,0,1-30.5,0Zm24-9.29a15.87,15.87,0,0,0,6.1-6.17,19.49,19.49,0,0,0,0-18,15.87,15.87,0,0,0-6.1-6.17,18.16,18.16,0,0,0-17.4,0,15.87,15.87,0,0,0-6.1,6.17,19.49,19.49,0,0,0,0,18,15.87,15.87,0,0,0,6.1,6.17,18.16,18.16,0,0,0,17.4,0Z"/><path class="cls-1" d="M619.65,198.52a19.43,19.43,0,0,1-7.57-5.86l7-8.4q4.42,6,10.1,6,7.7,0,7.69-9V155.36H617.75v-10.1h31.62v35.28q0,10-5,15t-14.61,5A24.67,24.67,0,0,1,619.65,198.52Z"/><path class="cls-1" d="M671.14,194.13q-6.48-6.45-6.49-18.41V145.26h12.59v30q0,14.61,12.12,14.61,5.91,0,9-3.54t3.11-11.07v-30h12.43v30.46q0,12-6.49,18.41t-18.14,6.45Q677.63,200.58,671.14,194.13Z"/><path class="cls-1" d="M762.67,188H737.42l-4.82,11.66H719.71l24.23-54.39h12.43l24.32,54.39H767.48Zm-4-9.55-8.62-20.82-8.62,20.82Zm-5.12-48.79h13l-14.06,11.19h-9.48Z"/><path class="cls-1" d="M824.51,199.65,814,184.5H802.44v15.15H789.86V145.26H813.4a30.3,30.3,0,0,1,12.54,2.41A18,18,0,0,1,837,165a17.71,17.71,0,0,1-11.18,17.17L838,199.65ZM821.32,158q-3-2.44-8.62-2.45H802.44v19H812.7q5.67,0,8.62-2.49a9.8,9.8,0,0,0,0-14Z"/><path class="cls-1" d="M892.29,189.55v10.1H850.18V145.26h41.1v10.1H862.69v11.81h25.25V177H862.69v12.59Z"/><path class="cls-1" d="M949.85,189.39v10.26H902.31v-8.16l29.83-36H902.93V145.26h45.76v8.16l-29.76,36Z"/><path class="cls-2" d="M275.54,72.59c.27-1.1.68-2.6,1.13-4.72A25.19,25.19,0,0,1,280,68c.11,1.44.11,4,.11,5.36l-.49,1A17.21,17.21,0,0,1,270.3,77c-8.08,0-13.17-5.09-13.17-13.47S263.24,49.46,271,49.46a19,19,0,0,1,8.79,2.19l.53,1c-.31,2-.8,4.64-1.14,6.52A17.63,17.63,0,0,1,276,59c-.34-2.26-.75-4.3-.94-5.35a8.93,8.93,0,0,0-4.34-1,9.46,9.46,0,0,0-5.43,1.51,13.87,13.87,0,0,0-2.95,9c0,6.3,3.1,10.38,8.45,10.38A8.48,8.48,0,0,0,275.54,72.59Z"/><path class="cls-2" d="M286.18,64c0-8.79,5.51-14.56,13.51-14.56,7.25,0,12.23,5.13,12.23,13.09,0,8.42-5.29,14.45-13.1,14.45C291.32,77,286.18,71.91,286.18,64Zm18.19,8c1-1.28,2.38-4.15,2.38-8.79,0-6.45-2.34-10.49-7.78-10.49a9.08,9.08,0,0,0-5.16,1.66c-1.4,1.93-2.46,5-2.46,9.13,0,6.3,2.68,10.19,7.85,10.19A7.91,7.91,0,0,0,304.37,72Z"/><path class="cls-2" d="M317.28,64c0-8.79,5.51-14.56,13.5-14.56C338,49.46,343,54.59,343,62.55,343,71,337.73,77,329.92,77,322.41,77,317.28,71.91,317.28,64Zm18.18,8c1-1.28,2.38-4.15,2.38-8.79,0-6.45-2.34-10.49-7.77-10.49a9.09,9.09,0,0,0-5.17,1.66c-1.4,1.93-2.45,5-2.45,9.13,0,6.3,2.67,10.19,7.84,10.19A7.91,7.91,0,0,0,335.46,72Z"/><path class="cls-2" d="M352.14,73.57c.11-.64.23-5.17.23-7.06V59.72c0-2.34,0-6.15-.3-6.56s-2.08-.91-3.32-1.25l.41-1.88h5.47c1.32,0,5.51-.23,7.32-.23,6.34,0,10.11,2.45,10.11,7.36,0,3.43-2.52,5.62-4.86,6.79,1.58,3.13,4.45,8.37,5.32,9.62l2.9,1L375,76.44c-2.08,0-4,.07-6.68.15-.83-1.93-3.59-7.43-5.51-11.09h-5.55v1.24c0,2.34,0,6.15.31,6.57s2.07.9,3.32,1.24l-.42,1.89H349.16l-.41-1.89Zm5.13-11.09,6.79.22A6.12,6.12,0,0,0,367,57.38a5.39,5.39,0,0,0-1.36-3.85,8.22,8.22,0,0,0-4.49-1,21.63,21.63,0,0,0-3.62.37c-.11.76-.23,5.17-.23,7.06Z"/><path class="cls-2" d="M383,73.57c.11-.64.23-5.17.23-7.06V59.72c0-2.34,0-6.15-.31-6.56s-2.07-.91-3.32-1.25L380,50h5.17c1.32,0,5.39-.23,7.24-.23,10.45,0,14.07,6.26,14.07,13.36,0,9-5.88,13.58-13.09,13.58-2.49,0-5.66-.3-8-.3H380l-.42-1.89Zm5.43-.3c.57.56,5.32,1.21,8,.19,3.13-1.66,4.87-5.17,4.94-10.3,0-4.3-1.66-7.63-3.39-9.06a11.14,11.14,0,0,0-5.93-1.43,23.07,23.07,0,0,0-3.69.26c-.12.76-.23,5.13-.23,7v6.79C388.14,69,388.14,72.63,388.44,73.27Z"/><path class="cls-2" d="M415.65,73.57c.11-.64.23-5.17.23-7.06V59.72c0-2.34,0-6.15-.31-6.56s-2.07-.91-3.32-1.25l.42-1.88H424l.41,1.88-3.39,1c-.12.64-.23,5.17-.23,7.06v6.79c0,2.34,0,6.15.3,6.57s2.08.9,3.32,1.24L424,76.44H412.67l-.42-1.89Z"/><path class="cls-2" d="M452,76.59l-3.39-4.53c-3.47-4.64-7.81-10-11.28-14.34.07,6.76.22,14.83.6,15.51.38.53,2.6.94,4.3,1.32l-.38,1.89H431l-.38-1.89,3.36-1c.15-1.28.26-4.72.26-10.19,0-6.41-.07-9.58-.45-10.11a15,15,0,0,0-3.28-1.36l.37-1.88c2.38,0,5.13-.08,7.32-.12,2.61,4.3,9,12.3,14.38,19,0-7.77-.23-15-.64-15.7-.3-.49-2.49-.94-4-1.32L448.4,50h10.75l.42,1.88-3.4,1c-.3,2.94-.49,11.89-.49,23.28Z"/><path class="cls-2" d="M473,76.44H462.63l-.38-1.89,3.06-1c2.56-6.19,5.13-13.21,7.58-19.85L474,50c1.81-.23,4.67-.42,6.37-.46a38.05,38.05,0,0,0,1.44,4.23c2.49,6.87,5.47,14.83,7.43,19.77l3.09,1-.41,1.89H480.44l-.38-1.89,3.73-1c-.64-1.7-1.35-3.7-2.11-5.92l-10.15.18c-.68,2-1.32,3.93-1.92,5.74l3.81,1ZM480.74,65c-1.32-3.7-2.79-7.78-4.34-11.85-1.36,3.81-2.68,7.81-4,11.73Z"/><path class="cls-2" d="M514.17,72.59c.26-1.1.68-2.6,1.13-4.72a25.19,25.19,0,0,1,3.36.15c.11,1.44.11,4,.11,5.36l-.49,1a17.23,17.23,0,0,1-9.35,2.6c-8.08,0-13.17-5.09-13.17-13.47s6.11-14.07,13.84-14.07a19,19,0,0,1,8.8,2.19l.52,1c-.3,2-.79,4.64-1.13,6.52a17.63,17.63,0,0,1-3.13-.15c-.34-2.26-.75-4.3-.94-5.35a9,9,0,0,0-4.34-1A9.46,9.46,0,0,0,504,54.21a13.87,13.87,0,0,0-2.95,9c0,6.3,3.1,10.38,8.45,10.38A8.48,8.48,0,0,0,514.17,72.59Z"/><path class="cls-2" d="M528.59,73.57c.11-.64.22-5.17.22-7.06V59.72c0-2.34,0-6.15-.3-6.56s-2.08-.91-3.32-1.25l.42-1.88h11.31l.42,1.88-3.4,1c-.11.64-.22,5.17-.22,7.06v6.79c0,2.34,0,6.15.3,6.57s2.07.9,3.32,1.24l-.42,1.89H525.61l-.42-1.89Z"/><path class="cls-2" d="M543.08,64c0-8.79,5.5-14.56,13.5-14.56,7.25,0,12.23,5.13,12.23,13.09C568.81,71,563.53,77,555.72,77,548.21,77,543.08,71.91,543.08,64Zm18.18,8c1-1.28,2.38-4.15,2.38-8.79,0-6.45-2.34-10.49-7.77-10.49a9.09,9.09,0,0,0-5.17,1.66c-1.4,1.93-2.45,5-2.45,9.13,0,6.3,2.67,10.19,7.84,10.19A7.91,7.91,0,0,0,561.26,72Zm-.11-32.78a11.77,11.77,0,0,1,1.73,3.62l-.64,1-12.07,3.4-.57-.26-.45-1.59A123.06,123.06,0,0,1,561.15,39.24Z"/><path class="cls-2" d="M596,76.59l-3.39-4.53c-3.47-4.64-7.81-10-11.28-14.34.07,6.76.22,14.83.6,15.51.38.53,2.6.94,4.3,1.32l-.38,1.89H575l-.38-1.89,3.36-1c.15-1.28.26-4.72.26-10.19,0-6.41-.07-9.58-.45-10.11a15,15,0,0,0-3.28-1.36l.37-1.88c2.38,0,5.13-.08,7.32-.12,2.61,4.3,9,12.3,14.38,19,0-7.77-.23-15-.64-15.7-.3-.49-2.49-.94-4-1.32l.41-1.88h10.75l.42,1.88-3.4,1c-.3,2.94-.49,11.89-.49,23.28Z"/><path class="cls-2" d="M640.13,76.59l-3.4-4.53c-3.47-4.64-7.81-10-11.28-14.34.07,6.76.23,14.83.6,15.51.38.53,2.61.94,4.3,1.32L630,76.44H619.15l-.38-1.89,3.36-1c.15-1.28.26-4.72.26-10.19,0-6.41-.07-9.58-.45-10.11a14.74,14.74,0,0,0-3.28-1.36L619,50c2.38,0,5.14-.08,7.32-.12,2.61,4.3,9,12.3,14.38,19,0-7.77-.23-15-.64-15.7-.3-.49-2.49-.94-4-1.32l.41-1.88h10.75l.42,1.88-3.4,1c-.3,2.94-.49,11.89-.49,23.28Z"/><path class="cls-2" d="M661.15,76.44H650.77l-.38-1.89,3.06-1c2.56-6.19,5.13-13.21,7.58-19.85l1.1-3.69c1.81-.23,4.68-.42,6.37-.46a38.05,38.05,0,0,0,1.44,4.23c2.49,6.87,5.47,14.83,7.43,19.77l3.09,1-.41,1.89H668.58l-.38-1.89,3.74-1c-.65-1.7-1.36-3.7-2.12-5.92l-10.15.18c-.68,2-1.32,3.93-1.92,5.74l3.81,1ZM668.88,65c-1.32-3.7-2.79-7.78-4.34-11.85-1.36,3.81-2.68,7.81-4,11.73Z"/><path class="cls-2" d="M702.31,72.59c.27-1.1.68-2.6,1.13-4.72a25.19,25.19,0,0,1,3.36.15c.11,1.44.11,4,.11,5.36l-.49,1a17.23,17.23,0,0,1-9.35,2.6C689,77,683.9,71.91,683.9,63.53S690,49.46,697.75,49.46a19,19,0,0,1,8.79,2.19l.52,1c-.3,2-.79,4.64-1.13,6.52A17.63,17.63,0,0,1,702.8,59c-.34-2.26-.75-4.3-.94-5.35a9,9,0,0,0-4.34-1,9.46,9.46,0,0,0-5.43,1.51,13.87,13.87,0,0,0-3,9c0,6.3,3.1,10.38,8.45,10.38A8.5,8.5,0,0,0,702.31,72.59Z"/><path class="cls-2" d="M716.73,73.57c.11-.64.22-5.17.22-7.06V59.72c0-2.34,0-6.15-.3-6.56s-2.07-.91-3.32-1.25l.42-1.88h11.31l.42,1.88-3.4,1c-.11.64-.22,5.17-.22,7.06v6.79c0,2.34,0,6.15.3,6.57s2.07.9,3.32,1.24l-.42,1.89H713.75l-.42-1.89Z"/><path class="cls-2" d="M731.22,64c0-8.79,5.51-14.56,13.5-14.56C752,49.46,757,54.59,757,62.55,757,71,751.67,77,743.86,77,736.35,77,731.22,71.91,731.22,64Zm18.18,8c1-1.28,2.38-4.15,2.38-8.79,0-6.45-2.34-10.49-7.77-10.49a9.09,9.09,0,0,0-5.17,1.66c-1.4,1.93-2.45,5-2.45,9.13,0,6.3,2.68,10.19,7.84,10.19A7.91,7.91,0,0,0,749.4,72Z"/><path class="cls-2" d="M784.16,76.59l-3.4-4.53c-3.47-4.64-7.81-10-11.28-14.34.07,6.76.22,14.83.6,15.51.38.53,2.61.94,4.3,1.32L774,76.44H763.18l-.38-1.89,3.36-1c.15-1.28.26-4.72.26-10.19,0-6.41-.07-9.58-.45-10.11a14.74,14.74,0,0,0-3.28-1.36l.37-1.88c2.38,0,5.14-.08,7.32-.12,2.61,4.3,9,12.3,14.38,19,0-7.77-.23-15-.64-15.7-.3-.49-2.49-.94-4-1.32l.41-1.88h10.75l.42,1.88-3.4,1c-.3,2.94-.49,11.89-.49,23.28Z"/><path class="cls-2" d="M805.17,76.44H794.8l-.38-1.89,3.06-1c2.56-6.19,5.13-13.21,7.58-19.85l1.1-3.69c1.81-.23,4.67-.42,6.37-.46A38.05,38.05,0,0,0,814,53.8c2.49,6.87,5.47,14.83,7.43,19.77l3.09,1-.41,1.89H812.61l-.38-1.89,3.74-1c-.65-1.7-1.36-3.7-2.12-5.92l-10.15.18c-.68,2-1.32,3.93-1.92,5.74l3.81,1ZM812.91,65c-1.32-3.7-2.79-7.78-4.34-11.85-1.36,3.81-2.68,7.81-4,11.73Z"/><path class="cls-2" d="M831.7,73.57c.12-.64.23-5.17.23-7.06V59.72c0-2.34,0-6.15-.3-6.56s-2.08-.91-3.32-1.25l.41-1.88H840l.42,1.88-3.4,1c-.11.64-.23,5.17-.23,7.06v6.79c0,2.57,0,6.11.38,6.64s2.79.45,4.49.45c1.51,0,3.1-.07,4.23-.18l1.17-5a18.06,18.06,0,0,1,3.2.15c.08,2.41,0,5-.07,7.66H828.72l-.41-1.89Z"/><path class="cls-2" d="M260.9,116.85c.11-.64.23-5.17.23-7V103c0-2.34,0-6.15-.3-6.57s-2.08-.9-3.32-1.24l.41-1.89h5.17c1.32,0,5.4-.23,7.24-.23,10.46,0,14.08,6.27,14.08,13.36,0,9-5.89,13.58-13.09,13.58-2.5,0-5.66-.3-8-.3h-5.44l-.41-1.89Zm5.44-.3c.56.57,5.31,1.21,8,.19,3.14-1.66,4.87-5.17,4.95-10.3,0-4.3-1.66-7.62-3.4-9.06A11.13,11.13,0,0,0,270,96a24.51,24.51,0,0,0-3.7.26c-.11.76-.23,5.14-.23,7V110C266,112.29,266,115.91,266.34,116.55Z"/><path class="cls-2" d="M293.54,116.85c.12-.64.23-5.17.23-7V103c0-2.34,0-6.23-.34-6.61s-2.08-.9-3.28-1.2l.41-1.89h9.85c4.53,0,8.19-.08,11.21-.3.26.34.71,1,.9,1.32-.26,1.81-.79,4.71-1.06,6.45a16.45,16.45,0,0,1-3-.19l-.8-4.56c-1.24-.12-3-.16-4.64-.16s-2.9,0-4.11.08c-.07.79-.23,5.36-.23,7.24v2.23l8.42-.34.64.76c-.11.64-.34,1.84-.45,2.49l-8.61-.27v2c0,2.34,0,6,.34,6.61.42.45,2.83.56,4.53.56a40.62,40.62,0,0,0,4.64-.3l1.06-4.64a22.79,22.79,0,0,1,3.21.15c.11,2.38.11,4.83,0,7.32H290.56l-.41-1.89Z"/><path class="cls-2" d="M331.92,116.85c.11-.64.22-5.17.22-7V103c0-2.34,0-6.15-.3-6.57s-2.07-.9-3.32-1.24l.42-1.89h5.28c1.28,0,5.43-.23,7.13-.23,6,0,9.73,2.27,9.73,6.87,0,2.94-2,4.94-4.18,6.11,3.05.76,5.62,2.83,5.62,6.45,0,4.95-4.49,7.51-9.74,7.51-2.41,0-5.69-.3-8.3-.3h-5.54l-.42-1.89Zm9.88.46a12.66,12.66,0,0,0,3.51-.49,5.22,5.22,0,0,0,2-4.31c0-2.64-1.74-4.45-5.17-4.45h-5.13v2c0,2.34,0,6.15.3,6.57S340,117.31,341.8,117.31Zm-4.75-12.23,6.07.23a5.76,5.76,0,0,0,2.87-5,5.27,5.27,0,0,0-1.09-3.44,7,7,0,0,0-4.19-1.09,19.9,19.9,0,0,0-3.44.38c-.11.71-.22,5.17-.22,7Z"/><path class="cls-2" d="M361.54,116.85c.11-.64.22-5.17.22-7V103c0-2.34,0-6.23-.34-6.61s-2.07-.9-3.28-1.2l.42-1.89h9.84c4.53,0,8.19-.08,11.21-.3.27.34.72,1,.91,1.32-.27,1.81-.8,4.71-1.06,6.45a16.51,16.51,0,0,1-3-.19L375.65,96c-1.25-.12-3-.16-4.64-.16s-2.91,0-4.11.08c-.08.79-.23,5.36-.23,7.24v2.23l8.41-.34.64.76c-.11.64-.34,1.84-.45,2.49l-8.6-.27v2c0,2.34,0,6,.34,6.61.41.45,2.83.56,4.53.56a40.78,40.78,0,0,0,4.64-.3l1.05-4.64a22.72,22.72,0,0,1,3.21.15c.11,2.38.11,4.83,0,7.32H358.56l-.42-1.89Z"/><path class="cls-2" d="M404.48,115.87c.26-1.09.68-2.6,1.13-4.71a23.62,23.62,0,0,1,3.36.15c.11,1.43.11,4,.11,5.35l-.49,1a17.16,17.16,0,0,1-9.36,2.61c-8.07,0-13.16-5.1-13.16-13.47s6.11-14.08,13.84-14.08a19.08,19.08,0,0,1,8.79,2.19l.53,1c-.3,2-.79,4.64-1.13,6.53a17.59,17.59,0,0,1-3.13-.15c-.34-2.27-.76-4.3-1-5.36a9,9,0,0,0-4.33-1,9.42,9.42,0,0,0-5.44,1.51,13.87,13.87,0,0,0-2.94,9c0,6.31,3.09,10.38,8.45,10.38A8.5,8.5,0,0,0,404.48,115.87Z"/><path class="cls-2" d="M424,119.72H413.57l-.37-1.89,3.05-1c2.57-6.18,5.13-13.2,7.59-19.84l1.09-3.7c1.81-.23,4.68-.42,6.38-.45a40.6,40.6,0,0,0,1.43,4.22c2.49,6.87,5.47,14.83,7.43,19.77l3.1,1-.42,1.89H431.38l-.37-1.89,3.73-1c-.64-1.69-1.36-3.69-2.11-5.92l-10.15.19c-.68,2-1.32,3.92-1.93,5.73l3.81,1Zm7.73-11.43c-1.32-3.7-2.79-7.77-4.33-11.85-1.36,3.81-2.68,7.81-4,11.74Z"/><path class="cls-2" d="M465.57,94.74l.56,1.06c-.3,1.7-.83,4.49-1.09,5.73a21.64,21.64,0,0,1-3.09-.11,36.86,36.86,0,0,0-.65-4.53,7.49,7.49,0,0,0-4.18-1,7,7,0,0,0-3.93,1,5,5,0,0,0-.83,2.72c0,6.3,14.15,4.64,14.15,13.28,0,4.42-3.81,7.4-10,7.4a20.82,20.82,0,0,1-9.24-2.31l-.11-.37c0-1.74,0-3.93.11-5.59a24.3,24.3,0,0,1,3.28-.15c.38,1.85.64,3,.94,4.15a10.27,10.27,0,0,0,5.14,1.25,8.22,8.22,0,0,0,3.88-.76,4.78,4.78,0,0,0,.91-2.83c0-5.92-14-4.11-14-13.05,0-4.68,4.57-7.89,10.19-7.89A15.54,15.54,0,0,1,465.57,94.74Z"/><path class="cls-2" d="M486.1,116.85c.11-.64.22-5.17.22-7V103c0-2.34,0-6.23-.34-6.61s-2.07-.9-3.28-1.2l.42-1.89h5.5c1.29,0,5.4-.23,7.14-.23,6.45,0,10.3,3,10.3,8.42,0,5.88-4,9.24-10.72,9.24a31.57,31.57,0,0,1-4.11-.26c0,2.26,0,5.77.34,6.18s2.83.8,4.49,1.17l-.42,1.89H483.12l-.42-1.89Zm13-20.07a7.86,7.86,0,0,0-4.07-1,17.85,17.85,0,0,0-3.66.41c-.08.91-.19,5.25-.19,7v4.23a25.18,25.18,0,0,0,3.66.34A10.42,10.42,0,0,0,499,107c1-.83,1.92-2.49,1.92-5.32A6.91,6.91,0,0,0,499.15,96.78Z"/><path class="cls-2" d="M519.34,119.72H509l-.37-1.89,3.05-1c2.57-6.18,5.13-13.2,7.59-19.84l1.09-3.7c1.81-.23,4.68-.42,6.38-.45a40.6,40.6,0,0,0,1.43,4.22c2.49,6.87,5.47,14.83,7.43,19.77l3.1,1-.42,1.89H526.77l-.37-1.89,3.73-1c-.64-1.69-1.36-3.69-2.11-5.92l-10.15.19c-.68,2-1.32,3.92-1.93,5.73l3.82,1Zm7.74-11.43c-1.33-3.7-2.8-7.77-4.34-11.85-1.36,3.81-2.68,7.81-4,11.74Z"/><path class="cls-2" d="M545.87,116.85c.11-.64.22-5.17.22-7V103c0-2.34,0-6.15-.3-6.57s-2.07-.9-3.32-1.24l.42-1.89h5.47c1.32,0,5.51-.23,7.32-.23,6.34,0,10.11,2.46,10.11,7.36,0,3.43-2.53,5.62-4.87,6.79,1.59,3.13,4.45,8.38,5.32,9.62l2.91,1-.42,1.89c-2.07,0-4,.08-6.68.15-.83-1.92-3.58-7.43-5.5-11.09H551V110c0,2.34,0,6.15.3,6.57s2.07.9,3.32,1.24l-.41,1.89H542.89l-.42-1.89ZM551,105.76l6.79.23a6.14,6.14,0,0,0,2.9-5.32,5.39,5.39,0,0,0-1.35-3.85,8.18,8.18,0,0,0-4.49-1,21.73,21.73,0,0,0-3.63.38c-.11.75-.22,5.17-.22,7Z"/><path class="cls-2" d="M581.79,119.72H571.41l-.37-1.89,3.05-1c2.57-6.18,5.13-13.2,7.59-19.84l1.09-3.7c1.81-.23,4.68-.42,6.38-.45a40.6,40.6,0,0,0,1.43,4.22c2.49,6.87,5.47,14.83,7.43,19.77l3.1,1-.42,1.89H589.22l-.37-1.89,3.73-1c-.64-1.69-1.36-3.69-2.11-5.92l-10.15.19c-.68,2-1.32,3.92-1.93,5.73l3.82,1Zm7.73-11.43c-1.32-3.7-2.79-7.77-4.33-11.85-1.36,3.81-2.68,7.81-4,11.74Z"/><path class="cls-2" d="M618.39,116.85c.11-.64.23-5.17.23-7V103c0-2.34,0-6.23-.34-6.61s-2.08-.9-3.28-1.2l.41-1.89h9.85c4.53,0,8.19-.08,11.2-.3.27.34.72,1,.91,1.32-.26,1.81-.79,4.71-1.06,6.45a16.45,16.45,0,0,1-3-.19L632.5,96c-1.24-.12-3-.16-4.64-.16s-2.9,0-4.11.08c-.08.79-.23,5.36-.23,7.24v2.23l8.42-.34.64.76c-.11.64-.34,1.84-.46,2.49l-8.6-.27v2c0,2.34,0,6,.34,6.61.42.45,2.83.56,4.53.56a40.62,40.62,0,0,0,4.64-.3l1.06-4.64a22.58,22.58,0,0,1,3.2.15c.12,2.38.12,4.83,0,7.32H615.41l-.41-1.89Z"/><path class="cls-2" d="M646.69,116.85c.12-.64.23-5.17.23-7V103c0-2.34,0-6.15-.3-6.57s-2.08-.9-3.32-1.24l.41-1.89H655l.42,1.89-3.4,1c-.11.64-.23,5.17-.23,7V110c0,2.57,0,6.12.38,6.64s2.79.46,4.49.46c1.51,0,3.1-.08,4.23-.19l1.17-5a18.06,18.06,0,0,1,3.2.15c.08,2.42,0,5-.07,7.66H643.71l-.41-1.89Z"/><path class="cls-2" d="M684.09,116.85c.11-.64.22-5.17.22-7V103c0-2.34,0-6.15-.3-6.57s-2.07-.9-3.32-1.24l.42-1.89h5.28c1.28,0,5.43-.23,7.13-.23,6,0,9.73,2.27,9.73,6.87,0,2.94-2,4.94-4.19,6.11,3.06.76,5.63,2.83,5.63,6.45,0,4.95-4.49,7.51-9.74,7.51-2.41,0-5.69-.3-8.3-.3h-5.54l-.42-1.89Zm9.88.46a12.66,12.66,0,0,0,3.51-.49,5.22,5.22,0,0,0,2-4.31c0-2.64-1.74-4.45-5.17-4.45h-5.13v2c0,2.34,0,6.15.3,6.57S692.12,117.31,694,117.31Zm-4.75-12.23,6.07.23a5.76,5.76,0,0,0,2.87-5,5.27,5.27,0,0,0-1.09-3.44,7,7,0,0,0-4.19-1.09,19.9,19.9,0,0,0-3.44.38c-.11.71-.22,5.17-.22,7Z"/><path class="cls-2" d="M713.71,116.85c.11-.64.22-5.17.22-7V103c0-2.34,0-6.15-.3-6.57s-2.07-.9-3.32-1.24l.42-1.89h11.32l.41,1.89-3.4,1c-.11.64-.22,5.17-.22,7V110c0,2.34,0,6.15.3,6.57s2.07.9,3.32,1.24l-.41,1.89H710.73l-.42-1.89Z"/><path class="cls-2" d="M732,116.85c.11-.64.23-5.17.23-7V103c0-2.34,0-6.23-.34-6.61s-2.08-.9-3.28-1.2l.41-1.89h9.85c4.52,0,8.18-.08,11.2-.3.27.34.72,1,.91,1.32-.26,1.81-.79,4.71-1.06,6.45a16.61,16.61,0,0,1-3-.19L746.08,96c-1.24-.12-3-.16-4.64-.16s-2.9,0-4.11.08c-.08.79-.23,5.36-.23,7.24v2.23l8.42-.34.64.76-.46,2.49-8.6-.27v2c0,2.34,0,6,.34,6.61.42.45,2.83.56,4.53.56a40.78,40.78,0,0,0,4.64-.3l1.06-4.64a22.58,22.58,0,0,1,3.2.15c.12,2.38.12,4.83,0,7.32H729l-.41-1.89Z"/><path class="cls-2" d="M778.34,119.87,775,115.34c-3.47-4.64-7.81-10-11.28-14.33.07,6.75.22,14.82.6,15.5.38.53,2.6.95,4.3,1.32l-.38,1.89H757.36l-.37-1.89,3.35-1c.16-1.28.27-4.71.27-10.18,0-6.42-.08-9.59-.45-10.12a14.61,14.61,0,0,0-3.29-1.35l.38-1.89c2.38,0,5.13-.08,7.32-.11,2.6,4.3,9,12.3,14.38,19,0-7.77-.23-15-.65-15.69-.3-.49-2.48-1-4-1.32l.42-1.89h10.75l.42,1.89-3.4,1c-.3,3-.49,11.89-.49,23.28Z"/><path class="cls-2" d="M794.31,116.85c.11-.64.22-5.17.22-7V103c0-2.34,0-6.23-.34-6.61s-2.07-.9-3.28-1.2l.42-1.89h9.84c4.53,0,8.19-.08,11.21-.3.26.34.72,1,.9,1.32-.26,1.81-.79,4.71-1,6.45a16.51,16.51,0,0,1-3-.19L808.42,96c-1.25-.12-3-.16-4.64-.16s-2.91,0-4.12.08c-.07.79-.22,5.36-.22,7.24v2.23l8.41-.34.64.76c-.11.64-.34,1.84-.45,2.49l-8.6-.27v2c0,2.34,0,6,.34,6.61.41.45,2.83.56,4.52.56a40.81,40.81,0,0,0,4.65-.3l1-4.64a22.72,22.72,0,0,1,3.21.15c.11,2.38.11,4.83,0,7.32H791.33l-.42-1.89Z"/><path class="cls-2" d="M837.7,94.74l.57,1.06c-.31,1.7-.84,4.49-1.1,5.73a21.64,21.64,0,0,1-3.09-.11,39.4,39.4,0,0,0-.64-4.53,7.55,7.55,0,0,0-4.19-1,7,7,0,0,0-3.93,1,5,5,0,0,0-.83,2.72c0,6.3,14.15,4.64,14.15,13.28,0,4.42-3.81,7.4-10,7.4A20.82,20.82,0,0,1,819.4,118l-.11-.37c0-1.74,0-3.93.11-5.59a24.3,24.3,0,0,1,3.28-.15c.38,1.85.64,3,1,4.15a10.2,10.2,0,0,0,5.13,1.25,8.22,8.22,0,0,0,3.88-.76,4.78,4.78,0,0,0,.91-2.83c0-5.92-14-4.11-14-13.05,0-4.68,4.57-7.89,10.19-7.89A15.54,15.54,0,0,1,837.7,94.74Z"/><path class="cls-2" d="M853.17,116.85c.08-.64.19-4.07.19-7v-14h-.68a41,41,0,0,0-4.57.22L847,101a24,24,0,0,1-3.28-.11c-.08-2.42-.08-5,0-7.55h12.71c4.45,0,8.08,0,10.91-.23.22.3.71,1,.9,1.25-.11,2-.37,4.37-.64,6.56a19.71,19.71,0,0,1-3,0l-.94-4.8a40.47,40.47,0,0,0-4.42-.19h-1V110c0,2.34,0,6.15.3,6.57s2,.9,3.32,1.24l-.41,1.89H850.15l-.41-1.89Z"/><path class="cls-2" d="M881.74,119.72H871.36l-.38-1.89,3.06-1c2.56-6.18,5.13-13.2,7.58-19.84l1.1-3.7c1.81-.23,4.67-.42,6.37-.45a38.69,38.69,0,0,0,1.44,4.22C893,104,896,111.91,898,116.85l3.09,1-.41,1.89H889.17l-.38-1.89,3.74-1c-.65-1.69-1.36-3.69-2.12-5.92l-10.15.19c-.68,2-1.32,3.92-1.92,5.73l3.81,1Zm7.73-11.43c-1.32-3.7-2.79-7.77-4.34-11.85-1.36,3.81-2.68,7.81-4,11.74Z"/><path class="cls-2" d="M908.26,116.85c.12-.64.23-5.17.23-7V103c0-2.34,0-6.15-.3-6.57s-2.08-.9-3.32-1.24l.41-1.89h5.47c1.32,0,5.51-.23,7.32-.23,6.34,0,10.11,2.46,10.11,7.36,0,3.43-2.52,5.62-4.86,6.79,1.58,3.13,4.45,8.38,5.32,9.62l2.9,1-.41,1.89c-2.08,0-4,.08-6.68.15-.83-1.92-3.59-7.43-5.51-11.09h-5.55V110c0,2.34,0,6.15.31,6.57s2.07.9,3.32,1.24l-.42,1.89H905.28l-.41-1.89Zm5.13-11.09,6.79.23a6.15,6.15,0,0,0,2.91-5.32,5.39,5.39,0,0,0-1.36-3.85,8.13,8.13,0,0,0-4.49-1,21.61,21.61,0,0,0-3.62.38c-.11.75-.23,5.17-.23,7Z"/><path class="cls-3" d="M47,96.28a3.38,3.38,0,0,1-4.78-3V74a3.29,3.29,0,0,1,1.48-2.78C60.52,60.21,86.86,53,115.86,53c27.4,0,52.43,6.45,69.3,16.44a3.3,3.3,0,0,1,1.61,2.86v20a3.33,3.33,0,0,1-4.8,3c-7.89-3.89-33.62-9.89-65.72-9.89C81.7,85.39,55.21,93.1,47,96.28ZM226.85,44,115.86.26a3.71,3.71,0,0,0-2.74,0l-111,43.8a3.34,3.34,0,0,0,.1,6.25l6.55,2.34V98.84l10.69-7V56.49L34.68,62a3.33,3.33,0,0,0,2.94-.36c18.2-11.8,45.55-19.19,76.65-19.19,30.67,0,57.7,7.18,75.91,18.71a3.33,3.33,0,0,0,2.83.35l33.68-11.22A3.34,3.34,0,0,0,226.85,44ZM59.58,188.2c.54.58,1.2,1.26,2,2l11.07-2.85c-2.5-2.43-4.53-4.45-5.81-5.82-4.74-5.08-9-39.24-10.48-70.72,5.78-1.65,18.63-4.56,36.52-6.39,16.47-1.68,20.74,4.78,21.65,6.74.9-2,5.18-8.42,21.64-6.74,17.9,1.83,30.74,4.74,36.52,6.39-1.52,31.48-5.74,65.64-10.48,70.72-1.28,1.37-3.3,3.38-5.78,5.79l11.07,2.84c.75-.75,1.4-1.42,1.93-2,9.61-10.29,12.59-64.37,13.27-80.71l.15-3.6-3.42-1.2c-.81-.29-16.19-5-41.44-7.89-19.5-2.22-23.46,5.7-23.46,5.7s-4-7.92-23.47-5.7c-25.25,2.86-40.63,7.6-41.44,7.89l-3.42,1.2.15,3.6C47,123.83,50,177.91,59.58,188.2Z"/><path class="cls-4" d="M114.49,122.28A27.89,27.89,0,1,1,86.6,150.17,27.89,27.89,0,0,1,114.49,122.28Zm-8.35,65.32-37.42,9.64c15.22,14.57,41.27,38.27,42.65,39.53l3.12,2.83,3.11-2.83c1.38-1.26,27.46-25,42.69-39.56l-37.46-9.62A33.57,33.57,0,0,0,106.14,187.6Z"/><polygon class="cls-4" points="19.45 98.38 8.76 105.43 8.76 120.6 19.45 113.55 19.45 98.38"/></g></g></svg>